<svg xmlns="http://www.w3.org/2000/svg" xmlns:xlink="http://www.w3.org/1999/xlink" width="100" zoomAndPan="magnify" viewBox="0 0 75 74.999997" height="100" preserveAspectRatio="xMidYMid meet" version="1.0"><defs><clipPath id="3ebff46f30"><path d="M 1.824219 1.824219 L 73.074219 1.824219 L 73.074219 73.074219 L 1.824219 73.074219 Z M 1.824219 1.824219 " clip-rule="nonzero"/></clipPath></defs><g clip-path="url(#3ebff46f30)"><path fill="#ffcc00" d="M 37.464844 1.800781 C 57.132812 1.800781 73.085938 17.753906 73.085938 37.421875 C 73.085938 57.097656 57.132812 73.042969 37.464844 73.042969 C 17.789062 73.042969 1.84375 57.097656 1.84375 37.421875 C 1.84375 17.753906 17.789062 1.800781 37.464844 1.800781 " fill-opacity="1" fill-rule="evenodd"/></g><path fill="#000000" d="M 37.464844 4.871094 C 46.453125 4.871094 54.59375 8.515625 60.484375 14.40625 C 66.375 20.296875 70.019531 28.433594 70.019531 37.421875 C 70.019531 46.410156 66.375 54.550781 60.484375 60.441406 C 54.59375 66.332031 46.453125 69.976562 37.464844 69.976562 C 28.476562 69.976562 20.339844 66.332031 14.445312 60.441406 C 8.554688 54.550781 4.914062 46.410156 4.914062 37.421875 C 4.914062 28.433594 8.554688 20.296875 14.445312 14.40625 C 20.339844 8.515625 28.476562 4.871094 37.464844 4.871094 Z M 59.0625 15.832031 C 53.535156 10.304688 45.898438 6.886719 37.464844 6.886719 C 29.03125 6.886719 21.394531 10.304688 15.867188 15.832031 C 10.347656 21.359375 6.921875 28.988281 6.921875 37.421875 C 6.921875 45.855469 10.347656 53.492188 15.867188 59.019531 C 21.394531 64.542969 29.03125 67.964844 37.464844 67.964844 C 45.898438 67.964844 53.535156 64.542969 59.0625 59.019531 C 64.585938 53.492188 68 45.855469 68 37.421875 C 68 28.988281 64.585938 21.359375 59.0625 15.832031 " fill-opacity="1" fill-rule="nonzero"/><path fill="#000000" d="M 28.085938 20.800781 C 30.617188 20.800781 32.664062 24.753906 32.664062 29.628906 C 32.664062 34.5 30.617188 38.457031 28.085938 38.457031 C 25.558594 38.457031 23.515625 34.5 23.515625 29.628906 C 23.515625 24.753906 25.558594 20.800781 28.085938 20.800781 " fill-opacity="1" fill-rule="evenodd"/><path fill="#000000" d="M 46.101562 20.800781 C 48.628906 20.800781 50.679688 24.753906 50.679688 29.628906 C 50.679688 34.5 48.628906 38.457031 46.101562 38.457031 C 43.574219 38.457031 41.523438 34.5 41.523438 29.628906 C 41.523438 24.753906 43.574219 20.800781 46.101562 20.800781 " fill-opacity="1" fill-rule="evenodd"/><path fill="#000000" d="M 59.457031 42.835938 C 58.25 47.738281 55.449219 52.015625 51.632812 55.085938 C 47.753906 58.199219 42.824219 60.066406 37.464844 60.066406 C 32.105469 60.066406 27.179688 58.199219 23.296875 55.085938 C 19.484375 52.015625 16.679688 47.738281 15.476562 42.835938 C 15.101562 42.742188 14.753906 42.566406 14.457031 42.332031 C 13.996094 41.957031 13.660156 41.433594 13.527344 40.835938 C 13.4375 40.417969 13.703125 40.003906 14.121094 39.914062 C 14.539062 39.828125 14.953125 40.09375 15.042969 40.511719 C 15.097656 40.757812 15.234375 40.972656 15.425781 41.125 C 15.613281 41.273438 15.847656 41.363281 16.109375 41.363281 C 16.371094 41.363281 16.605469 41.273438 16.792969 41.125 C 16.980469 40.972656 17.117188 40.757812 17.171875 40.511719 C 17.265625 40.09375 17.679688 39.828125 18.097656 39.914062 C 18.515625 40.003906 18.78125 40.417969 18.6875 40.835938 C 18.558594 41.433594 18.222656 41.960938 17.761719 42.332031 C 17.546875 42.503906 17.308594 42.640625 17.046875 42.738281 C 18.203125 47.195312 20.78125 51.078125 24.265625 53.882812 C 27.875 56.777344 32.46875 58.511719 37.464844 58.511719 C 42.460938 58.511719 47.050781 56.777344 50.664062 53.882812 C 54.144531 51.078125 56.726562 47.195312 57.882812 42.738281 C 57.621094 42.640625 57.378906 42.503906 57.167969 42.332031 C 56.707031 41.960938 56.371094 41.433594 56.246094 40.835938 C 56.152344 40.417969 56.417969 40.003906 56.835938 39.914062 C 57.253906 39.828125 57.664062 40.09375 57.753906 40.511719 C 57.808594 40.757812 57.945312 40.972656 58.136719 41.125 C 58.324219 41.273438 58.558594 41.363281 58.820312 41.363281 C 59.082031 41.363281 59.316406 41.273438 59.503906 41.125 C 59.691406 40.972656 59.828125 40.757812 59.882812 40.511719 C 59.976562 40.09375 60.390625 39.828125 60.808594 39.914062 C 61.226562 40.003906 61.492188 40.417969 61.398438 40.835938 C 61.269531 41.433594 60.933594 41.960938 60.472656 42.332031 C 60.179688 42.566406 59.828125 42.742188 59.457031 42.835938 " fill-opacity="1" fill-rule="nonzero"/><path fill="#ffffff" d="M 29.195312 22.820312 C 29.8125 22.820312 30.316406 23.789062 30.316406 24.980469 C 30.316406 26.171875 29.8125 27.140625 29.195312 27.140625 C 28.574219 27.140625 28.074219 26.171875 28.074219 24.980469 C 28.074219 23.789062 28.574219 22.820312 29.195312 22.820312 " fill-opacity="1" fill-rule="evenodd"/><path fill="#ffffff" d="M 47.496094 22.820312 C 48.117188 22.820312 48.617188 23.789062 48.617188 24.980469 C 48.617188 26.171875 48.117188 27.140625 47.496094 27.140625 C 46.875 27.140625 46.375 26.171875 46.375 24.980469 C 46.375 23.789062 46.875 22.820312 47.496094 22.820312 " fill-opacity="1" fill-rule="evenodd"/></svg>