<svg xmlns="http://www.w3.org/2000/svg" xmlns:xlink="http://www.w3.org/1999/xlink" width="40" zoomAndPan="magnify" viewBox="0 0 30 30.000001" height="40" preserveAspectRatio="xMidYMid meet" version="1.0"><defs><clipPath id="84ca03f91f"><path d="M 0.484375 0 L 29.515625 0 L 29.515625 29.03125 L 0.484375 29.03125 Z M 0.484375 0 " clip-rule="nonzero"/></clipPath></defs><g clip-path="url(#84ca03f91f)"><path fill="#f38f41" d="M 29.515625 14.515625 C 29.515625 15.46875 29.421875 16.414062 29.238281 17.347656 C 29.050781 18.28125 28.777344 19.191406 28.410156 20.070312 C 28.046875 20.953125 27.597656 21.789062 27.070312 22.582031 C 26.539062 23.375 25.9375 24.105469 25.265625 24.78125 C 24.589844 25.453125 23.855469 26.054688 23.066406 26.585938 C 22.273438 27.117188 21.4375 27.5625 20.554688 27.925781 C 19.675781 28.292969 18.765625 28.566406 17.832031 28.753906 C 16.898438 28.9375 15.953125 29.03125 15 29.03125 C 14.046875 29.03125 13.101562 28.9375 12.167969 28.753906 C 11.234375 28.566406 10.324219 28.292969 9.445312 27.925781 C 8.5625 27.5625 7.726562 27.117188 6.933594 26.585938 C 6.144531 26.054688 5.410156 25.453125 4.734375 24.78125 C 4.0625 24.105469 3.460938 23.375 2.929688 22.582031 C 2.402344 21.789062 1.953125 20.953125 1.589844 20.070312 C 1.222656 19.191406 0.949219 18.28125 0.761719 17.347656 C 0.578125 16.414062 0.484375 15.46875 0.484375 14.515625 C 0.484375 13.5625 0.578125 12.617188 0.761719 11.683594 C 0.949219 10.75 1.222656 9.839844 1.589844 8.960938 C 1.953125 8.082031 2.402344 7.242188 2.929688 6.453125 C 3.460938 5.660156 4.0625 4.925781 4.734375 4.25 C 5.410156 3.578125 6.144531 2.976562 6.933594 2.445312 C 7.726562 1.917969 8.5625 1.46875 9.445312 1.105469 C 10.324219 0.738281 11.234375 0.464844 12.167969 0.277344 C 13.101562 0.09375 14.046875 0 15 0 C 15.953125 0 16.898438 0.09375 17.832031 0.277344 C 18.765625 0.464844 19.675781 0.738281 20.554688 1.105469 C 21.4375 1.46875 22.273438 1.917969 23.066406 2.445312 C 23.855469 2.976562 24.589844 3.578125 25.265625 4.25 C 25.9375 4.925781 26.539062 5.660156 27.070312 6.453125 C 27.597656 7.242188 28.046875 8.082031 28.410156 8.960938 C 28.777344 9.839844 29.050781 10.75 29.238281 11.683594 C 29.421875 12.617188 29.515625 13.5625 29.515625 14.515625 Z M 29.515625 14.515625 " fill-opacity="1" fill-rule="nonzero"/></g><path fill="#fffffe" d="M 16.328125 19.484375 L 15.28125 19.484375 L 15.28125 16 L 16.171875 16 C 16.359375 16 16.511719 16.15625 16.511719 16.34375 L 16.511719 19.300781 C 16.511719 19.402344 16.429688 19.484375 16.328125 19.484375 Z M 14.914062 19.484375 L 13.863281 19.484375 C 13.761719 19.484375 13.679688 19.402344 13.679688 19.300781 L 13.679688 16.34375 C 13.679688 16.25 13.71875 16.164062 13.78125 16.101562 C 13.839844 16.039062 13.925781 16 14.019531 16 L 14.914062 16 Z M 15.921875 17.296875 C 15.921875 17.195312 15.839844 17.113281 15.738281 17.113281 C 15.636719 17.113281 15.554688 17.195312 15.554688 17.296875 L 15.554688 18.1875 C 15.554688 18.289062 15.636719 18.371094 15.738281 18.371094 C 15.839844 18.371094 15.921875 18.289062 15.921875 18.1875 Z M 14.636719 17.296875 C 14.636719 17.195312 14.554688 17.113281 14.453125 17.113281 C 14.351562 17.113281 14.269531 17.195312 14.269531 17.296875 L 14.269531 18.1875 C 14.269531 18.289062 14.351562 18.371094 14.453125 18.371094 C 14.554688 18.371094 14.636719 18.289062 14.636719 18.1875 Z M 14.636719 17.296875 " fill-opacity="1" fill-rule="nonzero"/><path fill="#fffffe" d="M 8.164062 19.796875 L 21.835938 19.796875 C 22.167969 19.796875 22.4375 20.066406 22.4375 20.398438 L 22.4375 20.804688 C 22.4375 20.914062 22.351562 21 22.246094 21 L 7.753906 21 C 7.648438 21 7.5625 20.914062 7.5625 20.804688 L 7.5625 20.398438 C 7.5625 20.066406 7.832031 19.796875 8.164062 19.796875 Z M 8.164062 19.796875 " fill-opacity="1" fill-rule="nonzero"/><path fill="#fffffe" d="M 7.382812 21.3125 L 22.695312 21.3125 C 22.863281 21.3125 23.011719 21.378906 23.121094 21.488281 C 23.125 21.492188 23.128906 21.496094 23.132812 21.5 C 23.234375 21.609375 23.296875 21.753906 23.296875 21.914062 L 23.296875 22.324219 C 23.296875 22.429688 23.210938 22.515625 23.105469 22.515625 L 6.976562 22.515625 C 6.867188 22.515625 6.78125 22.429688 6.78125 22.324219 L 6.78125 21.914062 C 6.78125 21.75 6.851562 21.597656 6.957031 21.488281 C 7.066406 21.378906 7.21875 21.3125 7.382812 21.3125 Z M 7.382812 21.3125 " fill-opacity="1" fill-rule="nonzero"/><path fill="#fffffe" d="M 10.328125 12.96875 C 10.394531 12.96875 10.460938 12.996094 10.503906 13.042969 C 10.550781 13.089844 10.578125 13.152344 10.578125 13.222656 L 10.578125 13.925781 C 10.578125 14.066406 10.464844 14.179688 10.328125 14.179688 L 9.21875 14.179688 C 9.148438 14.179688 9.085938 14.152344 9.039062 14.105469 L 9.027344 14.09375 C 8.988281 14.050781 8.964844 13.992188 8.964844 13.925781 L 8.964844 13.222656 C 8.964844 13.152344 8.992188 13.089844 9.039062 13.042969 L 9.050781 13.03125 C 9.097656 12.992188 9.152344 12.96875 9.21875 12.96875 Z M 11.199219 19.289062 L 11.199219 11.890625 L 8.882812 11.890625 C 8.566406 11.890625 8.304688 12.148438 8.304688 12.46875 L 8.304688 19.289062 C 8.304688 19.398438 8.390625 19.484375 8.5 19.484375 L 11.238281 19.484375 C 11.214844 19.421875 11.199219 19.359375 11.199219 19.289062 Z M 9.21875 15.082031 L 10.328125 15.082031 C 10.394531 15.082031 10.460938 15.109375 10.503906 15.15625 C 10.550781 15.199219 10.578125 15.261719 10.578125 15.332031 L 10.578125 16.039062 C 10.578125 16.179688 10.464844 16.292969 10.328125 16.292969 L 9.21875 16.292969 C 9.148438 16.292969 9.085938 16.261719 9.039062 16.21875 C 8.992188 16.171875 8.964844 16.109375 8.964844 16.039062 L 8.964844 15.332031 C 8.964844 15.261719 8.992188 15.199219 9.039062 15.15625 L 9.050781 15.144531 C 9.097656 15.105469 9.152344 15.082031 9.21875 15.082031 Z M 9.21875 17.191406 L 10.328125 17.191406 C 10.394531 17.191406 10.460938 17.21875 10.503906 17.265625 C 10.550781 17.3125 10.578125 17.375 10.578125 17.445312 L 10.578125 18.152344 C 10.578125 18.289062 10.464844 18.402344 10.328125 18.402344 L 9.21875 18.402344 C 9.148438 18.402344 9.085938 18.375 9.039062 18.328125 C 8.992188 18.285156 8.964844 18.21875 8.964844 18.152344 L 8.964844 17.445312 C 8.964844 17.375 8.992188 17.3125 9.039062 17.265625 L 9.050781 17.253906 C 9.097656 17.214844 9.152344 17.191406 9.21875 17.191406 Z M 9.21875 17.191406 " fill-opacity="1" fill-rule="evenodd"/><path fill="#fffffe" d="M 11.523438 8.449219 L 11.523438 19.289062 C 11.523438 19.398438 11.609375 19.484375 11.71875 19.484375 L 13.390625 19.484375 C 13.367188 19.425781 13.355469 19.363281 13.355469 19.300781 L 13.355469 16.34375 C 13.355469 16.167969 13.425781 16 13.550781 15.875 C 13.675781 15.75 13.84375 15.679688 14.019531 15.679688 L 16.171875 15.679688 C 16.535156 15.679688 16.835938 15.976562 16.835938 16.34375 L 16.835938 19.300781 C 16.835938 19.363281 16.824219 19.425781 16.800781 19.484375 L 18.472656 19.484375 C 18.582031 19.484375 18.667969 19.398438 18.667969 19.289062 L 18.667969 8.449219 C 18.667969 8.296875 18.605469 8.160156 18.507812 8.0625 C 18.410156 7.960938 18.273438 7.902344 18.121094 7.902344 L 12.070312 7.902344 C 11.769531 7.902344 11.523438 8.148438 11.523438 8.449219 Z M 12.96875 8.757812 L 14.078125 8.757812 C 14.148438 8.757812 14.210938 8.789062 14.257812 8.832031 L 14.269531 8.847656 C 14.308594 8.890625 14.332031 8.949219 14.332031 9.011719 L 14.332031 9.71875 C 14.332031 9.855469 14.21875 9.96875 14.078125 9.96875 L 12.96875 9.96875 C 12.828125 9.96875 12.714844 9.855469 12.714844 9.71875 L 12.714844 9.011719 C 12.714844 8.871094 12.828125 8.757812 12.96875 8.757812 Z M 12.96875 10.515625 L 14.078125 10.515625 C 14.148438 10.515625 14.210938 10.542969 14.257812 10.589844 L 14.269531 10.601562 C 14.308594 10.648438 14.332031 10.703125 14.332031 10.769531 L 14.332031 11.472656 C 14.332031 11.542969 14.300781 11.605469 14.257812 11.652344 C 14.210938 11.699219 14.148438 11.726562 14.078125 11.726562 L 12.96875 11.726562 C 12.828125 11.726562 12.714844 11.613281 12.714844 11.472656 L 12.714844 10.769531 C 12.714844 10.699219 12.746094 10.636719 12.789062 10.589844 C 12.835938 10.542969 12.898438 10.515625 12.96875 10.515625 Z M 12.96875 12.269531 L 14.078125 12.269531 C 14.148438 12.269531 14.210938 12.300781 14.257812 12.34375 C 14.300781 12.390625 14.332031 12.453125 14.332031 12.523438 L 14.332031 13.230469 C 14.332031 13.300781 14.300781 13.363281 14.257812 13.410156 C 14.210938 13.453125 14.148438 13.484375 14.078125 13.484375 L 12.96875 13.484375 C 12.828125 13.484375 12.714844 13.371094 12.714844 13.230469 L 12.714844 12.523438 C 12.714844 12.453125 12.746094 12.390625 12.789062 12.34375 L 12.804688 12.332031 C 12.847656 12.296875 12.90625 12.269531 12.96875 12.269531 Z M 14.257812 15.164062 Z M 12.96875 14.027344 L 14.078125 14.027344 C 14.148438 14.027344 14.210938 14.054688 14.257812 14.101562 C 14.300781 14.148438 14.332031 14.210938 14.332031 14.28125 L 14.332031 14.988281 C 14.332031 15.054688 14.300781 15.117188 14.257812 15.164062 C 14.210938 15.210938 14.148438 15.238281 14.078125 15.238281 L 12.96875 15.238281 C 12.898438 15.238281 12.835938 15.210938 12.789062 15.164062 C 12.746094 15.121094 12.714844 15.054688 12.714844 14.988281 L 12.714844 14.28125 C 12.714844 14.210938 12.746094 14.148438 12.789062 14.101562 L 12.804688 14.089844 C 12.847656 14.050781 12.90625 14.027344 12.96875 14.027344 Z M 16.113281 8.757812 L 17.222656 8.757812 C 17.363281 8.757812 17.476562 8.871094 17.476562 9.011719 L 17.476562 9.71875 C 17.476562 9.855469 17.363281 9.96875 17.222656 9.96875 L 16.113281 9.96875 C 15.972656 9.96875 15.859375 9.855469 15.859375 9.71875 L 15.859375 9.011719 C 15.859375 8.871094 15.972656 8.757812 16.113281 8.757812 Z M 16.113281 10.515625 L 17.222656 10.515625 C 17.292969 10.515625 17.355469 10.542969 17.402344 10.589844 C 17.449219 10.636719 17.476562 10.699219 17.476562 10.769531 L 17.476562 11.472656 C 17.476562 11.542969 17.449219 11.605469 17.402344 11.652344 L 17.386719 11.664062 C 17.34375 11.703125 17.285156 11.726562 17.222656 11.726562 L 16.113281 11.726562 C 16.042969 11.726562 15.980469 11.699219 15.933594 11.652344 C 15.890625 11.605469 15.859375 11.542969 15.859375 11.472656 L 15.859375 10.769531 C 15.859375 10.628906 15.972656 10.515625 16.113281 10.515625 Z M 16.113281 12.269531 L 17.222656 12.269531 C 17.363281 12.269531 17.476562 12.386719 17.476562 12.523438 L 17.476562 13.230469 C 17.476562 13.300781 17.449219 13.363281 17.402344 13.410156 L 17.386719 13.421875 C 17.34375 13.460938 17.285156 13.484375 17.222656 13.484375 L 16.113281 13.484375 C 16.042969 13.484375 15.980469 13.453125 15.933594 13.410156 C 15.890625 13.363281 15.859375 13.300781 15.859375 13.230469 L 15.859375 12.523438 C 15.859375 12.453125 15.890625 12.390625 15.933594 12.34375 C 15.980469 12.300781 16.042969 12.269531 16.113281 12.269531 Z M 16.113281 14.027344 L 17.222656 14.027344 C 17.363281 14.027344 17.476562 14.140625 17.476562 14.28125 L 17.476562 14.988281 C 17.476562 15.054688 17.449219 15.121094 17.402344 15.164062 C 17.355469 15.210938 17.292969 15.238281 17.222656 15.238281 L 16.113281 15.238281 C 16.042969 15.238281 15.980469 15.210938 15.933594 15.164062 L 15.921875 15.152344 C 15.882812 15.109375 15.859375 15.050781 15.859375 14.988281 L 15.859375 14.28125 C 15.859375 14.210938 15.890625 14.148438 15.933594 14.101562 C 15.980469 14.054688 16.042969 14.027344 16.113281 14.027344 Z M 16.113281 14.027344 " fill-opacity="1" fill-rule="evenodd"/><path fill="#fffffe" d="M 18.992188 11.890625 L 18.992188 19.289062 C 18.992188 19.359375 18.976562 19.421875 18.953125 19.484375 L 21.5 19.484375 C 21.605469 19.484375 21.695312 19.398438 21.695312 19.289062 L 21.695312 12.46875 C 21.695312 12.148438 21.433594 11.890625 21.113281 11.890625 Z M 19.769531 12.972656 L 20.878906 12.972656 C 20.949219 12.972656 21.011719 13 21.058594 13.046875 L 21.066406 13.058594 C 21.105469 13.105469 21.128906 13.164062 21.128906 13.226562 L 21.128906 13.933594 C 21.128906 14 21.101562 14.066406 21.058594 14.109375 C 21.011719 14.15625 20.949219 14.183594 20.878906 14.183594 L 19.769531 14.183594 C 19.699219 14.183594 19.636719 14.15625 19.589844 14.109375 C 19.542969 14.066406 19.515625 14 19.515625 13.933594 L 19.515625 13.226562 C 19.515625 13.085938 19.628906 12.972656 19.769531 12.972656 Z M 19.769531 15.085938 L 20.878906 15.085938 C 20.949219 15.085938 21.011719 15.113281 21.058594 15.160156 L 21.066406 15.171875 C 21.105469 15.214844 21.128906 15.273438 21.128906 15.335938 L 21.128906 16.042969 C 21.128906 16.113281 21.101562 16.175781 21.058594 16.222656 C 21.011719 16.269531 20.949219 16.296875 20.878906 16.296875 L 19.769531 16.296875 C 19.699219 16.296875 19.636719 16.269531 19.589844 16.222656 C 19.542969 16.175781 19.515625 16.113281 19.515625 16.042969 L 19.515625 15.335938 C 19.515625 15.199219 19.628906 15.085938 19.769531 15.085938 Z M 19.769531 17.195312 L 20.878906 17.195312 C 20.949219 17.195312 21.011719 17.226562 21.058594 17.269531 L 21.066406 17.285156 C 21.105469 17.328125 21.128906 17.386719 21.128906 17.449219 L 21.128906 18.15625 C 21.128906 18.226562 21.101562 18.289062 21.058594 18.332031 C 21.011719 18.378906 20.949219 18.40625 20.878906 18.40625 L 19.769531 18.40625 C 19.699219 18.40625 19.636719 18.378906 19.589844 18.332031 C 19.542969 18.289062 19.515625 18.226562 19.515625 18.15625 L 19.515625 17.449219 C 19.515625 17.308594 19.628906 17.195312 19.769531 17.195312 Z M 19.769531 17.195312 " fill-opacity="1" fill-rule="evenodd"/></svg>